<svg width="640" height="222" xmlns="http://www.w3.org/2000/svg">
 <title>Logo Melody_def</title>

 <g>
  <title>Layer 1</title>
  <g id="OBJECTS">
   <path id="svg_1" d="m179.10874,71.71423l34.53,0q19.41,0 32.39,13.31t12.9,33.45q0,20.14 -12.85,33.45t-32.45,13.38l-34.52,0l0,-93.59zm15.31,78.42l19,0a28,28 0 0 0 21.3,-9.07q8.5,-9.07 8.5,-22.59t-8.5,-22.59a28.08,28.08 0 0 0 -21.3,-9l-19,0l0,63.25z"/>
   <path id="svg_2" d="m299.72874,166.99423q-15.18,0 -25.14,-10.4t-10.08,-25.9q0,-15.44 10.08,-25.83t25.14,-10.37q15.06,0 25.14,10.34t10.06,25.83q0,15.49 -10.08,25.9t-25.12,10.43zm-14.49,-20.9a19.2,19.2 0 0 0 14.49,6.16a19,19 0 0 0 14.43,-6.16a23.34,23.34 0 0 0 0,-30.8a19,19 0 0 0 -14.43,-6.16a19.23,19.23 0 0 0 -14.49,6.16a23,23 0 0 0 0,30.8z"/>
   <path id="svg_3" d="m380.41874,71.71423l0,78.42l31.63,0l0,15.17l-46.94,0l0,-93.59l15.31,0z"/>
   <path id="svg_4" d="m469.65874,106.81423l0,-10.66l14.49,0l0,69.15l-14.49,0l0,-10.73q-8.57,12.26 -23.06,12.39a29.46,29.46 0 0 1 -23.12,-10.4q-9.27,-10.47 -9.27,-25.9t9.27,-25.83a29.64,29.64 0 0 1 23.12,-10.34q14.49,0 23.06,12.32zm-20.22,45.44a19,19 0 0 0 14.43,-6.16a23.38,23.38 0 0 0 0,-30.8a20.13,20.13 0 0 0 -29,0a23.17,23.17 0 0 0 0,30.8a19.15,19.15 0 0 0 14.57,6.16z"/>
   <path id="svg_5" d="m531.62874,94.49423a29.88,29.88 0 0 1 23.12,10.34q9.27,10.4 9.27,25.83t-9.27,25.9a29.8,29.8 0 0 1 -23.12,10.43q-14.62,0 -23.19,-12.39l0,10.73l-14.51,0l0,-97.7l14.49,0l0,39.21q8.6,-12.34 23.21,-12.35zm-17.33,51.6a20.13,20.13 0 0 0 29,0a23.38,23.38 0 0 0 0,-30.8a20.13,20.13 0 0 0 -29,0a23.17,23.17 0 0 0 0,30.8z"/>
   <path id="svg_6" d="m592.13874,166.99423q-10.28,0 -16.83,-6.43a20.76,20.76 0 0 1 -6.61,-15.57l14.68,0a8.83,8.83 0 0 0 8.88,8.81a9.18,9.18 0 0 0 6,-2.12a6.53,6.53 0 0 0 2.46,-5.24q0,-6.42 -11.66,-9.73q-19.47,-5.18 -19.47,-21.33q0,-9.6 6.49,-15.24a24.78,24.78 0 0 1 32,0.47a19.63,19.63 0 0 1 6.43,14.9l-14.75,0a7.49,7.49 0 0 0 -2.27,-5.56a7.79,7.79 0 0 0 -5.73,-2.25a7.71,7.71 0 0 0 -5.29,1.95a6.17,6.17 0 0 0 -2.21,4.8q0,6.49 11.91,9.61q19.21,5.16 19.22,21.06q0,10.13 -6.62,16a24.37,24.37 0 0 1 -16.63,5.87z"/>
   <path id="svg_7" d="m622.53874,80.62423a9.68,9.68 0 0 1 14.07,0a10.32,10.32 0 0 1 2.88,7.38a10.48,10.48 0 0 1 -2.88,7.43a9.55,9.55 0 0 1 -14.07,0a10.88,10.88 0 0 1 0,-14.81zm1.55,13.15a7.32,7.32 0 0 0 5.5,2.37a7.22,7.22 0 0 0 5.46,-2.37a8.07,8.07 0 0 0 2.23,-5.74a8,8 0 0 0 -2.25,-5.73a7.59,7.59 0 0 0 -11,0a8.46,8.46 0 0 0 0,11.47l0.06,0zm9.68,-7.48a3.07,3.07 0 0 1 -1.85,3.05l2.15,3.85l-2.35,0l-2,-3.48l-1.45,0l0,3.48l-2.26,0l0,-10.54l4.26,0a3.24,3.24 0 0 1 2.48,1a3.59,3.59 0 0 1 1.02,2.64zm-5.46,-1.48l0,2.74l1.85,0a1.38,1.38 0 0 0 1,-0.37a1.3,1.3 0 0 0 0.38,-1a1.42,1.42 0 0 0 -0.38,-1a1.36,1.36 0 0 0 -1,-0.39l-1.85,0.02z"/>
   <path id="svg_8" d="m146.92874,0.54423a43.32,43.32 0 0 0 -43.32,43.32l0,104.39l0,0a29.9,29.9 0 1 1 -9.6,-21.94l0,-48.41a73.21,73.21 0 1 0 52.92,70.35l0,-147.71z"/>
  </g>
 </g>
</svg>